<svg xmlns="http://www.w3.org/2000/svg" viewBox="0 0 1024 1024" width="1024" height="1024" role="img" aria-label="KUROOBI"><defs><linearGradient id="tatami" x1="0" y1="0" x2="0" y2="1"><stop offset="0" stop-color="#7d9a55"/><stop offset="1" stop-color="#718c4c"/></linearGradient><clipPath id="sq"><rect width="1024" height="1024" rx="230"/></clipPath><clipPath id="stone"><circle cx="512" cy="512" r="312"/></clipPath></defs><rect width="1024" height="1024" rx="230" fill="url(#tatami)"/><!-- 畳 4 枚。目の向きを互い違いにする --><g clip-path="url(#sq)"><rect x="0" y="0" width="512" height="512" fill="#ffffff" fill-opacity="0.032"/><line x1="0" y1="0" x2="512" y2="0" stroke="#33421d" stroke-opacity="0.15" stroke-width="2.6"/><line x1="0" y1="15" x2="512" y2="15" stroke="#33421d" stroke-opacity="0.15" stroke-width="2.6"/><line x1="0" y1="30" x2="512" y2="30" stroke="#33421d" stroke-opacity="0.15" stroke-width="2.6"/><line x1="0" y1="45" x2="512" y2="45" stroke="#33421d" stroke-opacity="0.15" stroke-width="2.6"/><line x1="0" y1="60" x2="512" y2="60" stroke="#33421d" stroke-opacity="0.15" stroke-width="2.6"/><line x1="0" y1="75" x2="512" y2="75" stroke="#33421d" stroke-opacity="0.15" stroke-width="2.6"/><line x1="0" y1="90" x2="512" y2="90" stroke="#33421d" stroke-opacity="0.15" stroke-width="2.6"/><line x1="0" y1="105" x2="512" y2="105" stroke="#33421d" stroke-opacity="0.15" stroke-width="2.6"/><line x1="0" y1="120" x2="512" y2="120" stroke="#33421d" stroke-opacity="0.15" stroke-width="2.6"/><line x1="0" y1="135" x2="512" y2="135" stroke="#33421d" stroke-opacity="0.15" stroke-width="2.6"/><line x1="0" y1="150" x2="512" y2="150" stroke="#33421d" stroke-opacity="0.15" stroke-width="2.6"/><line x1="0" y1="165" x2="512" y2="165" stroke="#33421d" stroke-opacity="0.15" stroke-width="2.6"/><line x1="0" y1="180" x2="512" y2="180" stroke="#33421d" stroke-opacity="0.15" stroke-width="2.6"/><line x1="0" y1="195" x2="512" y2="195" stroke="#33421d" stroke-opacity="0.15" stroke-width="2.6"/><line x1="0" y1="210" x2="512" y2="210" stroke="#33421d" stroke-opacity="0.15" stroke-width="2.6"/><line x1="0" y1="225" x2="512" y2="225" stroke="#33421d" stroke-opacity="0.15" stroke-width="2.6"/><line x1="0" y1="240" x2="512" y2="240" stroke="#33421d" stroke-opacity="0.15" stroke-width="2.6"/><line x1="0" y1="255" x2="512" y2="255" stroke="#33421d" stroke-opacity="0.15" stroke-width="2.6"/><line x1="0" y1="270" x2="512" y2="270" stroke="#33421d" stroke-opacity="0.15" stroke-width="2.6"/><line x1="0" y1="285" x2="512" y2="285" stroke="#33421d" stroke-opacity="0.15" stroke-width="2.6"/><line x1="0" y1="300" x2="512" y2="300" stroke="#33421d" stroke-opacity="0.15" stroke-width="2.6"/><line x1="0" y1="315" x2="512" y2="315" stroke="#33421d" stroke-opacity="0.15" stroke-width="2.6"/><line x1="0" y1="330" x2="512" y2="330" stroke="#33421d" stroke-opacity="0.15" stroke-width="2.6"/><line x1="0" y1="345" x2="512" y2="345" stroke="#33421d" stroke-opacity="0.15" stroke-width="2.6"/><line x1="0" y1="360" x2="512" y2="360" stroke="#33421d" stroke-opacity="0.15" stroke-width="2.6"/><line x1="0" y1="375" x2="512" y2="375" stroke="#33421d" stroke-opacity="0.15" stroke-width="2.6"/><line x1="0" y1="390" x2="512" y2="390" stroke="#33421d" stroke-opacity="0.15" stroke-width="2.6"/><line x1="0" y1="405" x2="512" y2="405" stroke="#33421d" stroke-opacity="0.15" stroke-width="2.6"/><line x1="0" y1="420" x2="512" y2="420" stroke="#33421d" stroke-opacity="0.15" stroke-width="2.6"/><line x1="0" y1="435" x2="512" y2="435" stroke="#33421d" stroke-opacity="0.15" stroke-width="2.6"/><line x1="0" y1="450" x2="512" y2="450" stroke="#33421d" stroke-opacity="0.15" stroke-width="2.6"/><line x1="0" y1="465" x2="512" y2="465" stroke="#33421d" stroke-opacity="0.15" stroke-width="2.6"/><line x1="0" y1="480" x2="512" y2="480" stroke="#33421d" stroke-opacity="0.15" stroke-width="2.6"/><line x1="0" y1="495" x2="512" y2="495" stroke="#33421d" stroke-opacity="0.15" stroke-width="2.6"/><line x1="0" y1="510" x2="512" y2="510" stroke="#33421d" stroke-opacity="0.15" stroke-width="2.6"/><rect x="512" y="0" width="512" height="512" fill="#ffffff" fill-opacity="0"/><line x1="512" y1="0" x2="512" y2="512" stroke="#33421d" stroke-opacity="0.15" stroke-width="2.6"/><line x1="527" y1="0" x2="527" y2="512" stroke="#33421d" stroke-opacity="0.15" stroke-width="2.6"/><line x1="542" y1="0" x2="542" y2="512" stroke="#33421d" stroke-opacity="0.15" stroke-width="2.6"/><line x1="557" y1="0" x2="557" y2="512" stroke="#33421d" stroke-opacity="0.15" stroke-width="2.6"/><line x1="572" y1="0" x2="572" y2="512" stroke="#33421d" stroke-opacity="0.15" stroke-width="2.6"/><line x1="587" y1="0" x2="587" y2="512" stroke="#33421d" stroke-opacity="0.15" stroke-width="2.6"/><line x1="602" y1="0" x2="602" y2="512" stroke="#33421d" stroke-opacity="0.15" stroke-width="2.6"/><line x1="617" y1="0" x2="617" y2="512" stroke="#33421d" stroke-opacity="0.15" stroke-width="2.6"/><line x1="632" y1="0" x2="632" y2="512" stroke="#33421d" stroke-opacity="0.15" stroke-width="2.6"/><line x1="647" y1="0" x2="647" y2="512" stroke="#33421d" stroke-opacity="0.15" stroke-width="2.6"/><line x1="662" y1="0" x2="662" y2="512" stroke="#33421d" stroke-opacity="0.15" stroke-width="2.6"/><line x1="677" y1="0" x2="677" y2="512" stroke="#33421d" stroke-opacity="0.15" stroke-width="2.6"/><line x1="692" y1="0" x2="692" y2="512" stroke="#33421d" stroke-opacity="0.15" stroke-width="2.6"/><line x1="707" y1="0" x2="707" y2="512" stroke="#33421d" stroke-opacity="0.15" stroke-width="2.6"/><line x1="722" y1="0" x2="722" y2="512" stroke="#33421d" stroke-opacity="0.15" stroke-width="2.6"/><line x1="737" y1="0" x2="737" y2="512" stroke="#33421d" stroke-opacity="0.15" stroke-width="2.6"/><line x1="752" y1="0" x2="752" y2="512" stroke="#33421d" stroke-opacity="0.15" stroke-width="2.6"/><line x1="767" y1="0" x2="767" y2="512" stroke="#33421d" stroke-opacity="0.15" stroke-width="2.6"/><line x1="782" y1="0" x2="782" y2="512" stroke="#33421d" stroke-opacity="0.15" stroke-width="2.6"/><line x1="797" y1="0" x2="797" y2="512" stroke="#33421d" stroke-opacity="0.15" stroke-width="2.6"/><line x1="812" y1="0" x2="812" y2="512" stroke="#33421d" stroke-opacity="0.15" stroke-width="2.6"/><line x1="827" y1="0" x2="827" y2="512" stroke="#33421d" stroke-opacity="0.15" stroke-width="2.6"/><line x1="842" y1="0" x2="842" y2="512" stroke="#33421d" stroke-opacity="0.15" stroke-width="2.6"/><line x1="857" y1="0" x2="857" y2="512" stroke="#33421d" stroke-opacity="0.15" stroke-width="2.6"/><line x1="872" y1="0" x2="872" y2="512" stroke="#33421d" stroke-opacity="0.15" stroke-width="2.6"/><line x1="887" y1="0" x2="887" y2="512" stroke="#33421d" stroke-opacity="0.15" stroke-width="2.6"/><line x1="902" y1="0" x2="902" y2="512" stroke="#33421d" stroke-opacity="0.15" stroke-width="2.6"/><line x1="917" y1="0" x2="917" y2="512" stroke="#33421d" stroke-opacity="0.15" stroke-width="2.6"/><line x1="932" y1="0" x2="932" y2="512" stroke="#33421d" stroke-opacity="0.15" stroke-width="2.6"/><line x1="947" y1="0" x2="947" y2="512" stroke="#33421d" stroke-opacity="0.15" stroke-width="2.6"/><line x1="962" y1="0" x2="962" y2="512" stroke="#33421d" stroke-opacity="0.15" stroke-width="2.6"/><line x1="977" y1="0" x2="977" y2="512" stroke="#33421d" stroke-opacity="0.15" stroke-width="2.6"/><line x1="992" y1="0" x2="992" y2="512" stroke="#33421d" stroke-opacity="0.15" stroke-width="2.6"/><line x1="1007" y1="0" x2="1007" y2="512" stroke="#33421d" stroke-opacity="0.15" stroke-width="2.6"/><line x1="1022" y1="0" x2="1022" y2="512" stroke="#33421d" stroke-opacity="0.15" stroke-width="2.6"/><rect x="0" y="512" width="512" height="512" fill="#ffffff" fill-opacity="0"/><line x1="0" y1="512" x2="0" y2="1024" stroke="#33421d" stroke-opacity="0.15" stroke-width="2.6"/><line x1="15" y1="512" x2="15" y2="1024" stroke="#33421d" stroke-opacity="0.15" stroke-width="2.6"/><line x1="30" y1="512" x2="30" y2="1024" stroke="#33421d" stroke-opacity="0.15" stroke-width="2.6"/><line x1="45" y1="512" x2="45" y2="1024" stroke="#33421d" stroke-opacity="0.15" stroke-width="2.6"/><line x1="60" y1="512" x2="60" y2="1024" stroke="#33421d" stroke-opacity="0.15" stroke-width="2.6"/><line x1="75" y1="512" x2="75" y2="1024" stroke="#33421d" stroke-opacity="0.15" stroke-width="2.6"/><line x1="90" y1="512" x2="90" y2="1024" stroke="#33421d" stroke-opacity="0.15" stroke-width="2.6"/><line x1="105" y1="512" x2="105" y2="1024" stroke="#33421d" stroke-opacity="0.15" stroke-width="2.6"/><line x1="120" y1="512" x2="120" y2="1024" stroke="#33421d" stroke-opacity="0.15" stroke-width="2.6"/><line x1="135" y1="512" x2="135" y2="1024" stroke="#33421d" stroke-opacity="0.15" stroke-width="2.6"/><line x1="150" y1="512" x2="150" y2="1024" stroke="#33421d" stroke-opacity="0.15" stroke-width="2.6"/><line x1="165" y1="512" x2="165" y2="1024" stroke="#33421d" stroke-opacity="0.15" stroke-width="2.6"/><line x1="180" y1="512" x2="180" y2="1024" stroke="#33421d" stroke-opacity="0.15" stroke-width="2.6"/><line x1="195" y1="512" x2="195" y2="1024" stroke="#33421d" stroke-opacity="0.15" stroke-width="2.6"/><line x1="210" y1="512" x2="210" y2="1024" stroke="#33421d" stroke-opacity="0.15" stroke-width="2.6"/><line x1="225" y1="512" x2="225" y2="1024" stroke="#33421d" stroke-opacity="0.15" stroke-width="2.6"/><line x1="240" y1="512" x2="240" y2="1024" stroke="#33421d" stroke-opacity="0.15" stroke-width="2.6"/><line x1="255" y1="512" x2="255" y2="1024" stroke="#33421d" stroke-opacity="0.15" stroke-width="2.6"/><line x1="270" y1="512" x2="270" y2="1024" stroke="#33421d" stroke-opacity="0.15" stroke-width="2.6"/><line x1="285" y1="512" x2="285" y2="1024" stroke="#33421d" stroke-opacity="0.15" stroke-width="2.6"/><line x1="300" y1="512" x2="300" y2="1024" stroke="#33421d" stroke-opacity="0.15" stroke-width="2.6"/><line x1="315" y1="512" x2="315" y2="1024" stroke="#33421d" stroke-opacity="0.15" stroke-width="2.6"/><line x1="330" y1="512" x2="330" y2="1024" stroke="#33421d" stroke-opacity="0.15" stroke-width="2.6"/><line x1="345" y1="512" x2="345" y2="1024" stroke="#33421d" stroke-opacity="0.15" stroke-width="2.6"/><line x1="360" y1="512" x2="360" y2="1024" stroke="#33421d" stroke-opacity="0.15" stroke-width="2.6"/><line x1="375" y1="512" x2="375" y2="1024" stroke="#33421d" stroke-opacity="0.15" stroke-width="2.6"/><line x1="390" y1="512" x2="390" y2="1024" stroke="#33421d" stroke-opacity="0.15" stroke-width="2.6"/><line x1="405" y1="512" x2="405" y2="1024" stroke="#33421d" stroke-opacity="0.15" stroke-width="2.6"/><line x1="420" y1="512" x2="420" y2="1024" stroke="#33421d" stroke-opacity="0.15" stroke-width="2.6"/><line x1="435" y1="512" x2="435" y2="1024" stroke="#33421d" stroke-opacity="0.15" stroke-width="2.6"/><line x1="450" y1="512" x2="450" y2="1024" stroke="#33421d" stroke-opacity="0.15" stroke-width="2.6"/><line x1="465" y1="512" x2="465" y2="1024" stroke="#33421d" stroke-opacity="0.15" stroke-width="2.6"/><line x1="480" y1="512" x2="480" y2="1024" stroke="#33421d" stroke-opacity="0.15" stroke-width="2.6"/><line x1="495" y1="512" x2="495" y2="1024" stroke="#33421d" stroke-opacity="0.15" stroke-width="2.6"/><line x1="510" y1="512" x2="510" y2="1024" stroke="#33421d" stroke-opacity="0.15" stroke-width="2.6"/><rect x="512" y="512" width="512" height="512" fill="#ffffff" fill-opacity="0.032"/><line x1="512" y1="512" x2="1024" y2="512" stroke="#33421d" stroke-opacity="0.15" stroke-width="2.6"/><line x1="512" y1="527" x2="1024" y2="527" stroke="#33421d" stroke-opacity="0.15" stroke-width="2.6"/><line x1="512" y1="542" x2="1024" y2="542" stroke="#33421d" stroke-opacity="0.15" stroke-width="2.6"/><line x1="512" y1="557" x2="1024" y2="557" stroke="#33421d" stroke-opacity="0.15" stroke-width="2.6"/><line x1="512" y1="572" x2="1024" y2="572" stroke="#33421d" stroke-opacity="0.15" stroke-width="2.6"/><line x1="512" y1="587" x2="1024" y2="587" stroke="#33421d" stroke-opacity="0.15" stroke-width="2.6"/><line x1="512" y1="602" x2="1024" y2="602" stroke="#33421d" stroke-opacity="0.15" stroke-width="2.6"/><line x1="512" y1="617" x2="1024" y2="617" stroke="#33421d" stroke-opacity="0.15" stroke-width="2.6"/><line x1="512" y1="632" x2="1024" y2="632" stroke="#33421d" stroke-opacity="0.15" stroke-width="2.6"/><line x1="512" y1="647" x2="1024" y2="647" stroke="#33421d" stroke-opacity="0.15" stroke-width="2.6"/><line x1="512" y1="662" x2="1024" y2="662" stroke="#33421d" stroke-opacity="0.15" stroke-width="2.6"/><line x1="512" y1="677" x2="1024" y2="677" stroke="#33421d" stroke-opacity="0.15" stroke-width="2.6"/><line x1="512" y1="692" x2="1024" y2="692" stroke="#33421d" stroke-opacity="0.15" stroke-width="2.6"/><line x1="512" y1="707" x2="1024" y2="707" stroke="#33421d" stroke-opacity="0.15" stroke-width="2.6"/><line x1="512" y1="722" x2="1024" y2="722" stroke="#33421d" stroke-opacity="0.15" stroke-width="2.6"/><line x1="512" y1="737" x2="1024" y2="737" stroke="#33421d" stroke-opacity="0.15" stroke-width="2.6"/><line x1="512" y1="752" x2="1024" y2="752" stroke="#33421d" stroke-opacity="0.15" stroke-width="2.6"/><line x1="512" y1="767" x2="1024" y2="767" stroke="#33421d" stroke-opacity="0.15" stroke-width="2.6"/><line x1="512" y1="782" x2="1024" y2="782" stroke="#33421d" stroke-opacity="0.15" stroke-width="2.6"/><line x1="512" y1="797" x2="1024" y2="797" stroke="#33421d" stroke-opacity="0.15" stroke-width="2.6"/><line x1="512" y1="812" x2="1024" y2="812" stroke="#33421d" stroke-opacity="0.15" stroke-width="2.6"/><line x1="512" y1="827" x2="1024" y2="827" stroke="#33421d" stroke-opacity="0.15" stroke-width="2.6"/><line x1="512" y1="842" x2="1024" y2="842" stroke="#33421d" stroke-opacity="0.15" stroke-width="2.6"/><line x1="512" y1="857" x2="1024" y2="857" stroke="#33421d" stroke-opacity="0.15" stroke-width="2.6"/><line x1="512" y1="872" x2="1024" y2="872" stroke="#33421d" stroke-opacity="0.15" stroke-width="2.6"/><line x1="512" y1="887" x2="1024" y2="887" stroke="#33421d" stroke-opacity="0.15" stroke-width="2.6"/><line x1="512" y1="902" x2="1024" y2="902" stroke="#33421d" stroke-opacity="0.15" stroke-width="2.6"/><line x1="512" y1="917" x2="1024" y2="917" stroke="#33421d" stroke-opacity="0.15" stroke-width="2.6"/><line x1="512" y1="932" x2="1024" y2="932" stroke="#33421d" stroke-opacity="0.15" stroke-width="2.6"/><line x1="512" y1="947" x2="1024" y2="947" stroke="#33421d" stroke-opacity="0.15" stroke-width="2.6"/><line x1="512" y1="962" x2="1024" y2="962" stroke="#33421d" stroke-opacity="0.15" stroke-width="2.6"/><line x1="512" y1="977" x2="1024" y2="977" stroke="#33421d" stroke-opacity="0.15" stroke-width="2.6"/><line x1="512" y1="992" x2="1024" y2="992" stroke="#33421d" stroke-opacity="0.15" stroke-width="2.6"/><line x1="512" y1="1007" x2="1024" y2="1007" stroke="#33421d" stroke-opacity="0.15" stroke-width="2.6"/><line x1="512" y1="1022" x2="1024" y2="1022" stroke="#33421d" stroke-opacity="0.15" stroke-width="2.6"/><line x1="512" y1="0" x2="512" y2="1024" stroke="#43562a" stroke-opacity="0.26" stroke-width="3.5"/><line x1="0" y1="512" x2="1024" y2="512" stroke="#43562a" stroke-opacity="0.26" stroke-width="3.5"/></g><!-- 石の奥を通る帯 --><line x1="41" y1="586" x2="983" y2="438" stroke="#4a6130" stroke-width="102" stroke-linecap="round"/><!-- 石 --><circle cx="512" cy="512" r="312" fill="#fbfcfa"/><!-- 石の手前を通る帯。石の外へはみ出さないよう切り抜く --><g clip-path="url(#stone)"><line x1="41" y1="614" x2="983" y2="463" stroke="#141210" stroke-width="148" stroke-linecap="round"/></g><g transform="rotate(-9 681 499)"><rect x="654" y="447" width="19" height="102" fill="#c9973b"/><rect x="689" y="447" width="19" height="102" fill="#c9973b"/></g></svg>
